<mxfile host="app.diagrams.net" modified="2022-04-07T02:33:35.555Z" agent="5.0 (Macintosh; Intel Mac OS X 10_15_7) AppleWebKit/537.36 (KHTML, like Gecko) Chrome/100.0.4896.60 Safari/537.36" etag="OqCbKSBsfdHVy-8CsAIu" version="17.4.0" type="github">
  <diagram id="6HqvTTm0dGGgTfufWupk" name="Page-1">
    <mxGraphModel dx="946" dy="698" grid="1" gridSize="10" guides="1" tooltips="1" connect="1" arrows="1" fold="1" page="1" pageScale="1" pageWidth="827" pageHeight="1169" math="0" shadow="0">
      <root>
        <mxCell id="0" />
        <mxCell id="1" parent="0" />
        <mxCell id="njbkgpjHh8RtpAubl-bF-1" value="" style="rounded=0;whiteSpace=wrap;html=1;strokeColor=none;strokeWidth=2;fillColor=#f8cecc;fontFamily=Comic Sans MS;fontSize=16;" vertex="1" parent="1">
          <mxGeometry x="980" y="1090" width="120" height="90" as="geometry" />
        </mxCell>
        <mxCell id="njbkgpjHh8RtpAubl-bF-2" value="" style="endArrow=none;html=1;fontSize=16;entryX=0.5;entryY=1;entryDx=0;entryDy=0;" edge="1" parent="1" target="njbkgpjHh8RtpAubl-bF-80">
          <mxGeometry width="50" height="50" relative="1" as="geometry">
            <mxPoint x="980" y="1180" as="sourcePoint" />
            <mxPoint x="1030" y="1130" as="targetPoint" />
          </mxGeometry>
        </mxCell>
        <mxCell id="njbkgpjHh8RtpAubl-bF-3" value="" style="rounded=0;whiteSpace=wrap;html=1;strokeColor=none;strokeWidth=2;fillColor=#ffe6cc;fontFamily=Comic Sans MS;fontSize=16;" vertex="1" parent="1">
          <mxGeometry x="780" y="1090" width="160" height="120" as="geometry" />
        </mxCell>
        <mxCell id="njbkgpjHh8RtpAubl-bF-4" value="" style="rounded=0;whiteSpace=wrap;html=1;strokeColor=none;strokeWidth=2;fillColor=#dae8fc;fontFamily=Comic Sans MS;fontSize=16;" vertex="1" parent="1">
          <mxGeometry x="680" y="1210" width="100" height="213" as="geometry" />
        </mxCell>
        <mxCell id="njbkgpjHh8RtpAubl-bF-5" style="edgeStyle=orthogonalEdgeStyle;rounded=0;orthogonalLoop=1;jettySize=auto;html=0;endArrow=none;endFill=0;strokeWidth=2;fontFamily=Comic Sans MS;fontSize=16;fontColor=#FF0000;dashed=1;strokeColor=#FF0000;" edge="1" parent="1">
          <mxGeometry relative="1" as="geometry">
            <mxPoint x="780" y="1210" as="targetPoint" />
            <mxPoint x="680" y="1210" as="sourcePoint" />
          </mxGeometry>
        </mxCell>
        <mxCell id="njbkgpjHh8RtpAubl-bF-6" value="" style="curved=1;endArrow=none;html=1;strokeWidth=1;fontSize=16;fontColor=#000000;endFill=0;" edge="1" parent="1">
          <mxGeometry width="50" height="50" relative="1" as="geometry">
            <mxPoint x="681" y="1418" as="sourcePoint" />
            <mxPoint x="781" y="1210" as="targetPoint" />
            <Array as="points">
              <mxPoint x="701" y="1390" />
              <mxPoint x="741" y="1330" />
            </Array>
          </mxGeometry>
        </mxCell>
        <mxCell id="njbkgpjHh8RtpAubl-bF-7" value="1" style="html=1;whiteSpace=wrap;comic=1;strokeWidth=2;fontFamily=Comic Sans MS;fontStyle=1;fontSize=16;fontColor=#000000;strokeColor=none;" vertex="1" parent="1">
          <mxGeometry x="680" y="1450" width="40" height="20" as="geometry" />
        </mxCell>
        <mxCell id="njbkgpjHh8RtpAubl-bF-8" value="0" style="html=1;whiteSpace=wrap;comic=1;strokeWidth=2;fontFamily=Comic Sans MS;fontStyle=1;fontSize=16;fontColor=#000000;strokeColor=none;" vertex="1" parent="1">
          <mxGeometry x="660" y="1450" width="20" height="20" as="geometry" />
        </mxCell>
        <mxCell id="njbkgpjHh8RtpAubl-bF-9" value="2" style="html=1;whiteSpace=wrap;comic=1;strokeWidth=2;fontFamily=Comic Sans MS;fontStyle=1;fontSize=16;fontColor=#000000;strokeColor=none;" vertex="1" parent="1">
          <mxGeometry x="720" y="1450" width="40" height="20" as="geometry" />
        </mxCell>
        <mxCell id="njbkgpjHh8RtpAubl-bF-10" value="3" style="html=1;whiteSpace=wrap;comic=1;strokeWidth=2;fontFamily=Comic Sans MS;fontStyle=1;fontSize=16;fontColor=#000000;strokeColor=none;" vertex="1" parent="1">
          <mxGeometry x="760" y="1450" width="40" height="20" as="geometry" />
        </mxCell>
        <mxCell id="njbkgpjHh8RtpAubl-bF-11" value="4" style="html=1;whiteSpace=wrap;comic=1;strokeWidth=2;fontFamily=Comic Sans MS;fontStyle=1;fontSize=16;fontColor=#000000;strokeColor=none;" vertex="1" parent="1">
          <mxGeometry x="800" y="1450" width="40" height="20" as="geometry" />
        </mxCell>
        <mxCell id="njbkgpjHh8RtpAubl-bF-12" value="5" style="html=1;whiteSpace=wrap;comic=1;strokeWidth=2;fontFamily=Comic Sans MS;fontStyle=1;fontSize=16;fontColor=#000000;strokeColor=none;" vertex="1" parent="1">
          <mxGeometry x="840" y="1450" width="40" height="20" as="geometry" />
        </mxCell>
        <mxCell id="njbkgpjHh8RtpAubl-bF-13" value="6" style="html=1;whiteSpace=wrap;comic=1;strokeWidth=2;fontFamily=Comic Sans MS;fontStyle=1;fontSize=16;fontColor=#000000;strokeColor=none;" vertex="1" parent="1">
          <mxGeometry x="880" y="1450" width="40" height="20" as="geometry" />
        </mxCell>
        <mxCell id="njbkgpjHh8RtpAubl-bF-14" value="" style="html=1;whiteSpace=wrap;comic=1;strokeWidth=2;fontFamily=Comic Sans MS;fontStyle=1;fontSize=16;rotation=90;horizontal=0;verticalAlign=middle;strokeColor=none;fillColor=#ffffff;" vertex="1" parent="1">
          <mxGeometry x="641" y="1350" width="39" height="20" as="geometry" />
        </mxCell>
        <mxCell id="njbkgpjHh8RtpAubl-bF-15" value="" style="endArrow=classicThin;html=1;strokeWidth=2;endFill=1;" edge="1" parent="1">
          <mxGeometry width="50" height="50" relative="1" as="geometry">
            <mxPoint x="680" y="1440" as="sourcePoint" />
            <mxPoint x="1290" y="1440" as="targetPoint" />
          </mxGeometry>
        </mxCell>
        <mxCell id="njbkgpjHh8RtpAubl-bF-16" value="" style="endArrow=blockThin;strokeWidth=2;endFill=1;" edge="1" parent="1" source="njbkgpjHh8RtpAubl-bF-33">
          <mxGeometry width="50" height="50" relative="1" as="geometry">
            <mxPoint x="680" y="1440" as="sourcePoint" />
            <mxPoint x="680" y="940" as="targetPoint" />
          </mxGeometry>
        </mxCell>
        <mxCell id="njbkgpjHh8RtpAubl-bF-17" value="&lt;br&gt;" style="ellipse;whiteSpace=wrap;html=1;aspect=fixed;strokeColor=none;fillColor=#ffffff;fontSize=16;fontColor=#000000;" vertex="1" parent="1">
          <mxGeometry x="664.5" y="1415" width="10" height="10" as="geometry" />
        </mxCell>
        <mxCell id="njbkgpjHh8RtpAubl-bF-18" style="edgeStyle=orthogonalEdgeStyle;rounded=0;orthogonalLoop=1;jettySize=auto;html=0;endArrow=none;endFill=0;strokeWidth=1;fontSize=16;fontColor=#000000;dashed=1;dashPattern=1 4;" edge="1" parent="1">
          <mxGeometry relative="1" as="geometry">
            <mxPoint x="696" y="1390" as="sourcePoint" />
            <mxPoint x="681" y="1390" as="targetPoint" />
          </mxGeometry>
        </mxCell>
        <mxCell id="njbkgpjHh8RtpAubl-bF-19" style="edgeStyle=orthogonalEdgeStyle;rounded=0;orthogonalLoop=1;jettySize=auto;html=0;endArrow=none;endFill=0;strokeWidth=1;fontSize=16;fontColor=#000000;dashed=1;dashPattern=1 4;" edge="1" parent="1" source="njbkgpjHh8RtpAubl-bF-20">
          <mxGeometry relative="1" as="geometry">
            <mxPoint x="700" y="1440" as="targetPoint" />
          </mxGeometry>
        </mxCell>
        <mxCell id="njbkgpjHh8RtpAubl-bF-20" value="&lt;br&gt;" style="ellipse;whiteSpace=wrap;html=1;aspect=fixed;strokeColor=#000000;fillColor=#ffffff;fontSize=16;fontColor=#000000;" vertex="1" parent="1">
          <mxGeometry x="695" y="1385" width="10" height="10" as="geometry" />
        </mxCell>
        <mxCell id="njbkgpjHh8RtpAubl-bF-21" value="2" style="html=1;whiteSpace=wrap;comic=1;strokeWidth=2;fontFamily=Comic Sans MS;fontStyle=1;fontSize=16;rotation=90;horizontal=0;verticalAlign=middle;strokeColor=none;fillColor=#ffffff;" vertex="1" parent="1">
          <mxGeometry x="650.5" y="1380" width="19.5" height="20" as="geometry" />
        </mxCell>
        <mxCell id="njbkgpjHh8RtpAubl-bF-22" value="" style="html=1;whiteSpace=wrap;comic=1;strokeWidth=2;fontFamily=Comic Sans MS;fontStyle=1;fontSize=16;rotation=90;horizontal=0;verticalAlign=middle;strokeColor=none;fillColor=#ffffff;" vertex="1" parent="1">
          <mxGeometry x="640.75" y="1410" width="39" height="20" as="geometry" />
        </mxCell>
        <mxCell id="njbkgpjHh8RtpAubl-bF-23" style="edgeStyle=orthogonalEdgeStyle;rounded=0;orthogonalLoop=1;jettySize=auto;html=0;entryX=0;entryY=0.5;entryDx=0;entryDy=0;endArrow=none;endFill=0;strokeWidth=1;fontSize=16;fontColor=#000000;dashed=1;dashPattern=1 4;" edge="1" parent="1" target="njbkgpjHh8RtpAubl-bF-36">
          <mxGeometry relative="1" as="geometry">
            <mxPoint x="680" y="1330" as="sourcePoint" />
          </mxGeometry>
        </mxCell>
        <mxCell id="njbkgpjHh8RtpAubl-bF-24" value="4" style="html=1;whiteSpace=wrap;comic=1;strokeWidth=2;fontFamily=Comic Sans MS;fontStyle=1;fontSize=16;rotation=90;horizontal=0;verticalAlign=middle;strokeColor=none;fillColor=#ffffff;" vertex="1" parent="1">
          <mxGeometry x="650.5" y="1320" width="19.5" height="20" as="geometry" />
        </mxCell>
        <mxCell id="njbkgpjHh8RtpAubl-bF-25" value="" style="html=1;whiteSpace=wrap;comic=1;strokeWidth=2;fontFamily=Comic Sans MS;fontStyle=1;fontSize=16;rotation=90;horizontal=0;verticalAlign=middle;strokeColor=none;fillColor=#ffffff;" vertex="1" parent="1">
          <mxGeometry x="641" y="1290" width="39" height="20" as="geometry" />
        </mxCell>
        <mxCell id="njbkgpjHh8RtpAubl-bF-26" value="6" style="html=1;whiteSpace=wrap;comic=1;strokeWidth=2;fontFamily=Comic Sans MS;fontStyle=1;fontSize=16;rotation=90;horizontal=0;verticalAlign=middle;strokeColor=#b85450;fillColor=#f8cecc;" vertex="1" parent="1">
          <mxGeometry x="650.5" y="1260" width="19.5" height="20" as="geometry" />
        </mxCell>
        <mxCell id="njbkgpjHh8RtpAubl-bF-27" value="" style="html=1;whiteSpace=wrap;comic=1;strokeWidth=2;fontFamily=Comic Sans MS;fontStyle=1;fontSize=16;rotation=90;horizontal=0;verticalAlign=middle;strokeColor=none;fillColor=#ffffff;" vertex="1" parent="1">
          <mxGeometry x="641" y="1230" width="39" height="20" as="geometry" />
        </mxCell>
        <mxCell id="njbkgpjHh8RtpAubl-bF-28" value="8" style="html=1;whiteSpace=wrap;comic=1;strokeWidth=2;fontFamily=Comic Sans MS;fontStyle=1;fontSize=16;rotation=90;horizontal=0;verticalAlign=middle;strokeColor=#b85450;fillColor=#f8cecc;" vertex="1" parent="1">
          <mxGeometry x="650.5" y="1200" width="19.5" height="20" as="geometry" />
        </mxCell>
        <mxCell id="njbkgpjHh8RtpAubl-bF-29" value="" style="html=1;whiteSpace=wrap;comic=1;strokeWidth=2;fontFamily=Comic Sans MS;fontStyle=1;fontSize=16;rotation=90;horizontal=0;verticalAlign=middle;strokeColor=none;fillColor=#ffffff;" vertex="1" parent="1">
          <mxGeometry x="640.75" y="1170" width="39" height="20" as="geometry" />
        </mxCell>
        <mxCell id="njbkgpjHh8RtpAubl-bF-30" style="edgeStyle=none;rounded=0;orthogonalLoop=1;jettySize=auto;html=0;entryX=0;entryY=0.5;entryDx=0;entryDy=0;labelBackgroundColor=#ffffff;endArrow=none;endFill=0;strokeColor=#000000;strokeWidth=1;fontFamily=Helvetica;fontSize=16;fontColor=#000000;dashed=1;dashPattern=1 4;" edge="1" parent="1" target="njbkgpjHh8RtpAubl-bF-60">
          <mxGeometry relative="1" as="geometry">
            <mxPoint x="680" y="1150" as="sourcePoint" />
          </mxGeometry>
        </mxCell>
        <mxCell id="njbkgpjHh8RtpAubl-bF-31" value="10" style="html=1;whiteSpace=wrap;comic=1;strokeWidth=2;fontFamily=Comic Sans MS;fontStyle=1;fontSize=16;rotation=90;horizontal=0;verticalAlign=middle;strokeColor=none;fillColor=#ffffff;" vertex="1" parent="1">
          <mxGeometry x="650.25" y="1140" width="19.5" height="20" as="geometry" />
        </mxCell>
        <mxCell id="njbkgpjHh8RtpAubl-bF-32" value="" style="html=1;whiteSpace=wrap;comic=1;strokeWidth=2;fontFamily=Comic Sans MS;fontStyle=1;fontSize=16;rotation=90;horizontal=0;verticalAlign=middle;strokeColor=none;fillColor=#ffffff;" vertex="1" parent="1">
          <mxGeometry x="640.75" y="1110" width="39" height="20" as="geometry" />
        </mxCell>
        <mxCell id="njbkgpjHh8RtpAubl-bF-33" value="" style="ellipse;whiteSpace=wrap;html=1;aspect=fixed;strokeColor=#000000;fillColor=#ffffff;fontSize=16;fontColor=#000000;direction=south;" vertex="1" parent="1">
          <mxGeometry x="674.5" y="1413" width="10" height="10" as="geometry" />
        </mxCell>
        <mxCell id="njbkgpjHh8RtpAubl-bF-34" value="" style="endArrow=none;strokeWidth=2;endFill=0;" edge="1" parent="1" target="njbkgpjHh8RtpAubl-bF-33">
          <mxGeometry width="50" height="50" relative="1" as="geometry">
            <mxPoint x="680" y="1440" as="sourcePoint" />
            <mxPoint x="680" y="1000" as="targetPoint" />
          </mxGeometry>
        </mxCell>
        <mxCell id="njbkgpjHh8RtpAubl-bF-35" style="edgeStyle=orthogonalEdgeStyle;rounded=0;orthogonalLoop=1;jettySize=auto;html=0;endArrow=none;endFill=0;strokeWidth=1;fontSize=16;fontColor=#000000;dashed=1;dashPattern=1 4;" edge="1" parent="1" source="njbkgpjHh8RtpAubl-bF-36">
          <mxGeometry relative="1" as="geometry">
            <mxPoint x="740" y="1440" as="targetPoint" />
          </mxGeometry>
        </mxCell>
        <mxCell id="njbkgpjHh8RtpAubl-bF-36" value="&lt;br&gt;" style="ellipse;whiteSpace=wrap;html=1;aspect=fixed;strokeColor=#000000;fillColor=#ffffff;fontSize=16;fontColor=#000000;" vertex="1" parent="1">
          <mxGeometry x="735" y="1325" width="10" height="10" as="geometry" />
        </mxCell>
        <mxCell id="njbkgpjHh8RtpAubl-bF-37" style="edgeStyle=orthogonalEdgeStyle;rounded=0;orthogonalLoop=1;jettySize=auto;html=0;endArrow=none;endFill=0;strokeWidth=1;fontSize=16;fontColor=#000000;dashed=1;dashPattern=1 4;" edge="1" parent="1" source="njbkgpjHh8RtpAubl-bF-39">
          <mxGeometry relative="1" as="geometry">
            <mxPoint x="780" y="1440" as="targetPoint" />
          </mxGeometry>
        </mxCell>
        <mxCell id="njbkgpjHh8RtpAubl-bF-38" style="rounded=0;orthogonalLoop=1;jettySize=auto;html=0;endArrow=none;endFill=0;strokeColor=#000000;strokeWidth=1;fontFamily=Comic Sans MS;fontSize=16;fontColor=#000000;labelBackgroundColor=#ffffff;" edge="1" parent="1" source="njbkgpjHh8RtpAubl-bF-39">
          <mxGeometry relative="1" as="geometry">
            <mxPoint x="940" y="1090" as="targetPoint" />
          </mxGeometry>
        </mxCell>
        <mxCell id="njbkgpjHh8RtpAubl-bF-39" value="&lt;br&gt;" style="ellipse;whiteSpace=wrap;html=1;aspect=fixed;strokeColor=#b85450;fillColor=#f8cecc;fontSize=16;" vertex="1" parent="1">
          <mxGeometry x="775" y="1205" width="10" height="10" as="geometry" />
        </mxCell>
        <mxCell id="njbkgpjHh8RtpAubl-bF-40" value="1" style="text;html=1;align=center;verticalAlign=middle;resizable=0;points=[];autosize=1;fontSize=16;fontColor=#000000;" vertex="1" parent="1">
          <mxGeometry x="650.5" y="1410" width="20" height="20" as="geometry" />
        </mxCell>
        <mxCell id="njbkgpjHh8RtpAubl-bF-41" value="2" style="text;html=1;align=center;verticalAlign=middle;resizable=0;points=[];autosize=1;fontSize=16;fontColor=#000000;" vertex="1" parent="1">
          <mxGeometry x="690" y="1360" width="20" height="20" as="geometry" />
        </mxCell>
        <mxCell id="njbkgpjHh8RtpAubl-bF-42" value="4" style="text;html=1;align=center;verticalAlign=middle;resizable=0;points=[];autosize=1;fontSize=16;fontColor=#000000;" vertex="1" parent="1">
          <mxGeometry x="725" y="1302" width="20" height="20" as="geometry" />
        </mxCell>
        <mxCell id="njbkgpjHh8RtpAubl-bF-43" value="8" style="text;html=1;align=center;verticalAlign=middle;resizable=0;points=[];autosize=1;fontSize=16;fontColor=#000000;" vertex="1" parent="1">
          <mxGeometry x="770" y="1180" width="20" height="20" as="geometry" />
        </mxCell>
        <mxCell id="njbkgpjHh8RtpAubl-bF-44" value="拥塞窗口&lt;br&gt;cwnd" style="text;html=1;align=center;verticalAlign=middle;resizable=0;points=[];autosize=1;fontSize=16;fontColor=#000000;" vertex="1" parent="1">
          <mxGeometry x="639.5" y="890" width="80" height="40" as="geometry" />
        </mxCell>
        <mxCell id="njbkgpjHh8RtpAubl-bF-45" value="慢启动" style="text;html=1;align=center;verticalAlign=middle;resizable=0;points=[];autosize=1;fontSize=16;fillColor=#ffff88;strokeColor=#36393d;" vertex="1" parent="1">
          <mxGeometry x="695" y="1215" width="60" height="20" as="geometry" />
        </mxCell>
        <mxCell id="njbkgpjHh8RtpAubl-bF-46" value="轮次" style="text;html=1;align=center;verticalAlign=middle;resizable=0;points=[];autosize=1;fontSize=16;fontColor=#000000;" vertex="1" parent="1">
          <mxGeometry x="1300" y="1430" width="50" height="20" as="geometry" />
        </mxCell>
        <mxCell id="njbkgpjHh8RtpAubl-bF-47" value="初始慢启动门限 &lt;br&gt;ssthresh" style="text;html=1;align=center;verticalAlign=middle;resizable=0;points=[];autosize=1;fontSize=16;fontFamily=Comic Sans MS;fillColor=#f8cecc;strokeColor=#b85450;" vertex="1" parent="1">
          <mxGeometry x="450" y="1190" width="130" height="40" as="geometry" />
        </mxCell>
        <mxCell id="njbkgpjHh8RtpAubl-bF-48" value="" style="shape=flexArrow;endArrow=classic;html=1;strokeColor=#b85450;strokeWidth=2;fontFamily=Comic Sans MS;fontSize=16;fontColor=#FF0000;width=4;endSize=4.33;endWidth=19;fillColor=#f8cecc;" edge="1" parent="1">
          <mxGeometry width="50" height="50" relative="1" as="geometry">
            <mxPoint x="590.5" y="1209.5" as="sourcePoint" />
            <mxPoint x="640.5" y="1209.5" as="targetPoint" />
          </mxGeometry>
        </mxCell>
        <mxCell id="njbkgpjHh8RtpAubl-bF-49" value="7" style="html=1;whiteSpace=wrap;comic=1;strokeWidth=2;fontFamily=Comic Sans MS;fontStyle=1;fontSize=16;fontColor=#000000;strokeColor=none;" vertex="1" parent="1">
          <mxGeometry x="920" y="1450" width="40" height="20" as="geometry" />
        </mxCell>
        <mxCell id="njbkgpjHh8RtpAubl-bF-50" value="8" style="html=1;whiteSpace=wrap;comic=1;strokeWidth=2;fontFamily=Comic Sans MS;fontStyle=1;fontSize=16;fontColor=#000000;strokeColor=none;" vertex="1" parent="1">
          <mxGeometry x="960" y="1450" width="40" height="20" as="geometry" />
        </mxCell>
        <mxCell id="njbkgpjHh8RtpAubl-bF-51" value="9" style="html=1;whiteSpace=wrap;comic=1;strokeWidth=2;fontFamily=Comic Sans MS;fontStyle=1;fontSize=16;fontColor=#000000;strokeColor=none;" vertex="1" parent="1">
          <mxGeometry x="1000" y="1450" width="40" height="20" as="geometry" />
        </mxCell>
        <mxCell id="njbkgpjHh8RtpAubl-bF-52" style="edgeStyle=none;rounded=0;orthogonalLoop=1;jettySize=auto;html=0;entryX=0;entryY=0.5;entryDx=0;entryDy=0;labelBackgroundColor=#ffffff;endArrow=none;endFill=0;strokeColor=#000000;strokeWidth=1;fontFamily=Helvetica;fontSize=16;fontColor=#000000;dashed=1;dashPattern=1 2;" edge="1" parent="1" target="njbkgpjHh8RtpAubl-bF-64">
          <mxGeometry relative="1" as="geometry">
            <mxPoint x="680" y="1090" as="sourcePoint" />
          </mxGeometry>
        </mxCell>
        <mxCell id="njbkgpjHh8RtpAubl-bF-53" value="12" style="html=1;whiteSpace=wrap;comic=1;strokeWidth=2;fontFamily=Comic Sans MS;fontStyle=1;fontSize=16;rotation=90;horizontal=0;verticalAlign=middle;strokeColor=none;fillColor=#ffffff;" vertex="1" parent="1">
          <mxGeometry x="650" y="1080" width="19.5" height="20" as="geometry" />
        </mxCell>
        <mxCell id="njbkgpjHh8RtpAubl-bF-54" value="" style="html=1;whiteSpace=wrap;comic=1;strokeWidth=2;fontFamily=Comic Sans MS;fontStyle=1;fontSize=16;rotation=90;horizontal=0;verticalAlign=middle;strokeColor=none;fillColor=#ffffff;" vertex="1" parent="1">
          <mxGeometry x="640.5" y="1050" width="39" height="20" as="geometry" />
        </mxCell>
        <mxCell id="njbkgpjHh8RtpAubl-bF-55" value="14" style="html=1;whiteSpace=wrap;comic=1;strokeWidth=2;fontFamily=Comic Sans MS;fontStyle=1;fontSize=16;rotation=90;horizontal=0;verticalAlign=middle;strokeColor=none;fillColor=#ffffff;" vertex="1" parent="1">
          <mxGeometry x="650.5" y="1020" width="19.5" height="20" as="geometry" />
        </mxCell>
        <mxCell id="njbkgpjHh8RtpAubl-bF-56" value="" style="html=1;whiteSpace=wrap;comic=1;strokeWidth=2;fontFamily=Comic Sans MS;fontStyle=1;fontSize=16;rotation=90;horizontal=0;verticalAlign=middle;strokeColor=none;fillColor=#ffffff;" vertex="1" parent="1">
          <mxGeometry x="641" y="990" width="39" height="20" as="geometry" />
        </mxCell>
        <mxCell id="njbkgpjHh8RtpAubl-bF-57" value="16" style="html=1;whiteSpace=wrap;comic=1;strokeWidth=2;fontFamily=Comic Sans MS;fontStyle=1;fontSize=16;rotation=90;horizontal=0;verticalAlign=middle;strokeColor=none;fillColor=#ffffff;" vertex="1" parent="1">
          <mxGeometry x="650.75" y="959" width="19.5" height="20" as="geometry" />
        </mxCell>
        <mxCell id="njbkgpjHh8RtpAubl-bF-58" value="&lt;br&gt;" style="ellipse;whiteSpace=wrap;html=1;aspect=fixed;strokeColor=#000000;fillColor=#ffffff;fontSize=16;fontColor=#000000;" vertex="1" parent="1">
          <mxGeometry x="815" y="1175" width="10" height="10" as="geometry" />
        </mxCell>
        <mxCell id="njbkgpjHh8RtpAubl-bF-59" style="edgeStyle=none;rounded=0;orthogonalLoop=1;jettySize=auto;html=0;labelBackgroundColor=#ffffff;endArrow=none;endFill=0;strokeColor=#000000;strokeWidth=1;fontFamily=Helvetica;fontSize=16;fontColor=#000000;dashed=1;dashPattern=1 4;" edge="1" parent="1">
          <mxGeometry relative="1" as="geometry">
            <mxPoint x="860" y="1440" as="targetPoint" />
            <mxPoint x="860" y="1160" as="sourcePoint" />
          </mxGeometry>
        </mxCell>
        <mxCell id="njbkgpjHh8RtpAubl-bF-60" value="&lt;br&gt;" style="ellipse;whiteSpace=wrap;html=1;aspect=fixed;strokeColor=#000000;fillColor=#ffffff;fontSize=16;fontColor=#000000;" vertex="1" parent="1">
          <mxGeometry x="855" y="1145" width="10" height="10" as="geometry" />
        </mxCell>
        <mxCell id="njbkgpjHh8RtpAubl-bF-61" value="&lt;br&gt;" style="ellipse;whiteSpace=wrap;html=1;aspect=fixed;strokeColor=#000000;fillColor=#ffffff;fontSize=16;fontColor=#000000;" vertex="1" parent="1">
          <mxGeometry x="895" y="1115" width="10" height="10" as="geometry" />
        </mxCell>
        <mxCell id="njbkgpjHh8RtpAubl-bF-62" style="edgeStyle=none;rounded=0;orthogonalLoop=1;jettySize=auto;html=0;labelBackgroundColor=#ffffff;endArrow=none;endFill=0;strokeColor=#000000;strokeWidth=1;fontFamily=Helvetica;fontSize=16;fontColor=#000000;dashed=1;dashPattern=1 4;" edge="1" parent="1" source="njbkgpjHh8RtpAubl-bF-64">
          <mxGeometry relative="1" as="geometry">
            <mxPoint x="940" y="1440" as="targetPoint" />
          </mxGeometry>
        </mxCell>
        <mxCell id="njbkgpjHh8RtpAubl-bF-63" style="edgeStyle=none;rounded=0;orthogonalLoop=1;jettySize=auto;html=1;entryX=0;entryY=1;entryDx=0;entryDy=0;endArrow=none;endFill=0;" edge="1" parent="1" source="njbkgpjHh8RtpAubl-bF-64" target="njbkgpjHh8RtpAubl-bF-77">
          <mxGeometry relative="1" as="geometry" />
        </mxCell>
        <mxCell id="njbkgpjHh8RtpAubl-bF-64" value="&lt;br&gt;" style="ellipse;whiteSpace=wrap;html=1;aspect=fixed;strokeColor=#B20000;fillColor=#e51400;fontSize=16;fontColor=#ffffff;" vertex="1" parent="1">
          <mxGeometry x="935" y="1085" width="10" height="10" as="geometry" />
        </mxCell>
        <mxCell id="njbkgpjHh8RtpAubl-bF-65" value="9" style="text;html=1;align=center;verticalAlign=middle;resizable=0;points=[];autosize=1;fontSize=16;fontFamily=Helvetica;fontColor=#000000;" vertex="1" parent="1">
          <mxGeometry x="810" y="1150" width="20" height="20" as="geometry" />
        </mxCell>
        <mxCell id="njbkgpjHh8RtpAubl-bF-66" value="10" style="text;html=1;align=center;verticalAlign=middle;resizable=0;points=[];autosize=1;fontSize=16;fontFamily=Helvetica;fontColor=#000000;" vertex="1" parent="1">
          <mxGeometry x="845" y="1120" width="30" height="20" as="geometry" />
        </mxCell>
        <mxCell id="njbkgpjHh8RtpAubl-bF-67" value="11" style="text;html=1;align=center;verticalAlign=middle;resizable=0;points=[];autosize=1;fontSize=16;fontFamily=Helvetica;fontColor=#000000;" vertex="1" parent="1">
          <mxGeometry x="885" y="1090" width="30" height="20" as="geometry" />
        </mxCell>
        <mxCell id="njbkgpjHh8RtpAubl-bF-68" value="12" style="text;html=1;align=center;verticalAlign=middle;resizable=0;points=[];autosize=1;fontSize=16;fontFamily=Helvetica;fontColor=#000000;" vertex="1" parent="1">
          <mxGeometry x="925" y="1060" width="30" height="20" as="geometry" />
        </mxCell>
        <mxCell id="njbkgpjHh8RtpAubl-bF-69" value="拥塞避免" style="text;html=1;align=center;verticalAlign=middle;resizable=0;points=[];autosize=1;fontSize=16;fillColor=#ffff88;strokeColor=#36393d;" vertex="1" parent="1">
          <mxGeometry x="785" y="1095" width="80" height="20" as="geometry" />
        </mxCell>
        <mxCell id="njbkgpjHh8RtpAubl-bF-70" value="" style="endArrow=classic;html=1;labelBackgroundColor=#ffffff;strokeColor=#d6b656;strokeWidth=2;fontFamily=Helvetica;fontSize=16;fontColor=#000000;fillColor=#fff2cc;exitX=0.319;exitY=1.05;exitDx=0;exitDy=0;exitPerimeter=0;" edge="1" parent="1" source="njbkgpjHh8RtpAubl-bF-71">
          <mxGeometry width="50" height="50" relative="1" as="geometry">
            <mxPoint x="978" y="1057" as="sourcePoint" />
            <mxPoint x="948" y="1087" as="targetPoint" />
          </mxGeometry>
        </mxCell>
        <mxCell id="njbkgpjHh8RtpAubl-bF-71" value="收到三个重复的 ACK，触发快速重传机制&lt;br&gt;① cwnd 变为原来的一半&lt;br&gt;② ssthresh = cwnd&amp;nbsp;" style="text;html=1;align=left;verticalAlign=middle;resizable=0;points=[];autosize=1;fontSize=16;fontFamily=Helvetica;fillColor=#fff2cc;strokeColor=#d6b656;" vertex="1" parent="1">
          <mxGeometry x="865" y="960" width="310" height="60" as="geometry" />
        </mxCell>
        <mxCell id="njbkgpjHh8RtpAubl-bF-72" value="更新慢启动门限 &lt;br&gt;ssthresh" style="text;html=1;align=center;verticalAlign=middle;resizable=0;points=[];autosize=1;fontSize=16;fontFamily=Comic Sans MS;fillColor=#f8cecc;strokeColor=#b85450;" vertex="1" parent="1">
          <mxGeometry x="450" y="1250" width="130" height="40" as="geometry" />
        </mxCell>
        <mxCell id="njbkgpjHh8RtpAubl-bF-73" value="" style="shape=flexArrow;endArrow=classic;html=1;strokeColor=#b85450;strokeWidth=2;fontFamily=Comic Sans MS;fontSize=16;fontColor=#FF0000;width=4;endSize=4.33;endWidth=19;fillColor=#f8cecc;" edge="1" parent="1">
          <mxGeometry width="50" height="50" relative="1" as="geometry">
            <mxPoint x="589.5" y="1269.5" as="sourcePoint" />
            <mxPoint x="639.5" y="1269.5" as="targetPoint" />
          </mxGeometry>
        </mxCell>
        <mxCell id="njbkgpjHh8RtpAubl-bF-74" value="10" style="html=1;whiteSpace=wrap;comic=1;strokeWidth=2;fontFamily=Comic Sans MS;fontStyle=1;fontSize=16;fontColor=#000000;strokeColor=none;" vertex="1" parent="1">
          <mxGeometry x="1040" y="1450" width="40" height="20" as="geometry" />
        </mxCell>
        <mxCell id="njbkgpjHh8RtpAubl-bF-75" value="" style="endArrow=none;dashed=1;html=1;labelBackgroundColor=#ffffff;strokeColor=#FF0000;strokeWidth=2;fontFamily=Helvetica;fontSize=16;fontColor=#000000;fillColor=#f8cecc;" edge="1" parent="1">
          <mxGeometry width="50" height="50" relative="1" as="geometry">
            <mxPoint x="985" y="1270" as="sourcePoint" />
            <mxPoint x="1110" y="1270" as="targetPoint" />
          </mxGeometry>
        </mxCell>
        <mxCell id="njbkgpjHh8RtpAubl-bF-76" value="" style="endArrow=none;dashed=1;html=1;labelBackgroundColor=#ffffff;strokeColor=#FF0000;strokeWidth=2;fontFamily=Helvetica;fontSize=16;fontColor=#000000;fillColor=#f8cecc;" edge="1" parent="1">
          <mxGeometry width="50" height="50" relative="1" as="geometry">
            <mxPoint x="679.5" y="1270" as="sourcePoint" />
            <mxPoint x="975" y="1270" as="targetPoint" />
          </mxGeometry>
        </mxCell>
        <mxCell id="njbkgpjHh8RtpAubl-bF-77" value="" style="ellipse;whiteSpace=wrap;html=1;aspect=fixed;strokeColor=#005700;fillColor=#008a00;fontSize=16;fontColor=#ffffff;direction=south;" vertex="1" parent="1">
          <mxGeometry x="975" y="1175" width="10" height="10" as="geometry" />
        </mxCell>
        <mxCell id="njbkgpjHh8RtpAubl-bF-78" value="" style="ellipse;whiteSpace=wrap;html=1;aspect=fixed;strokeColor=#000000;fillColor=#ffffff;fontSize=16;fontColor=#000000;direction=south;" vertex="1" parent="1">
          <mxGeometry x="1015" y="1145" width="10" height="10" as="geometry" />
        </mxCell>
        <mxCell id="njbkgpjHh8RtpAubl-bF-79" value="11" style="html=1;whiteSpace=wrap;comic=1;strokeWidth=2;fontFamily=Comic Sans MS;fontStyle=1;fontSize=16;fontColor=#000000;strokeColor=none;" vertex="1" parent="1">
          <mxGeometry x="1080" y="1450" width="40" height="20" as="geometry" />
        </mxCell>
        <mxCell id="njbkgpjHh8RtpAubl-bF-80" value="" style="ellipse;whiteSpace=wrap;html=1;aspect=fixed;strokeColor=#001DBC;fillColor=#0050ef;fontSize=16;direction=south;fontColor=#ffffff;" vertex="1" parent="1">
          <mxGeometry x="1095" y="1090" width="10" height="10" as="geometry" />
        </mxCell>
        <mxCell id="njbkgpjHh8RtpAubl-bF-81" value="10" style="text;html=1;align=center;verticalAlign=middle;resizable=0;points=[];autosize=1;fontSize=16;" vertex="1" parent="1">
          <mxGeometry x="1000" y="1120" width="30" height="20" as="geometry" />
        </mxCell>
        <mxCell id="njbkgpjHh8RtpAubl-bF-82" value="11" style="text;html=1;align=center;verticalAlign=middle;resizable=0;points=[];autosize=1;fontSize=16;" vertex="1" parent="1">
          <mxGeometry x="1040" y="1090" width="30" height="20" as="geometry" />
        </mxCell>
        <mxCell id="njbkgpjHh8RtpAubl-bF-83" value="12" style="text;html=1;align=center;verticalAlign=middle;resizable=0;points=[];autosize=1;fontSize=16;" vertex="1" parent="1">
          <mxGeometry x="1085" y="1070" width="30" height="20" as="geometry" />
        </mxCell>
        <mxCell id="njbkgpjHh8RtpAubl-bF-84" value="" style="ellipse;whiteSpace=wrap;html=1;aspect=fixed;strokeColor=#000000;fillColor=#ffffff;fontSize=16;fontColor=#000000;direction=south;" vertex="1" parent="1">
          <mxGeometry x="1055" y="1115" width="10" height="10" as="geometry" />
        </mxCell>
        <mxCell id="njbkgpjHh8RtpAubl-bF-85" value="9" style="text;html=1;align=center;verticalAlign=middle;resizable=0;points=[];autosize=1;fontSize=16;" vertex="1" parent="1">
          <mxGeometry x="975" y="1150" width="20" height="20" as="geometry" />
        </mxCell>
        <mxCell id="njbkgpjHh8RtpAubl-bF-87" value="" style="endArrow=classic;html=1;fontSize=16;fillColor=#008a00;strokeColor=#005700;strokeWidth=2;" edge="1" parent="1">
          <mxGeometry width="50" height="50" relative="1" as="geometry">
            <mxPoint x="970" y="1220" as="sourcePoint" />
            <mxPoint x="980" y="1195" as="targetPoint" />
          </mxGeometry>
        </mxCell>
        <mxCell id="njbkgpjHh8RtpAubl-bF-88" value="快恢复&lt;br&gt;cwnd = ssthresh + 3" style="text;html=1;align=center;verticalAlign=middle;resizable=0;points=[];autosize=1;fontSize=16;fillColor=#d5e8d4;strokeColor=#82b366;" vertex="1" parent="1">
          <mxGeometry x="910" y="1220" width="160" height="40" as="geometry" />
        </mxCell>
        <mxCell id="njbkgpjHh8RtpAubl-bF-89" value="后面又持续收到&lt;br&gt;3个重复的ACK" style="text;html=1;align=left;verticalAlign=middle;resizable=0;points=[];autosize=1;fontSize=16;fontFamily=Helvetica;fillColor=#f8cecc;strokeColor=none;" vertex="1" parent="1">
          <mxGeometry x="980" y="1030" width="130" height="40" as="geometry" />
        </mxCell>
        <mxCell id="njbkgpjHh8RtpAubl-bF-90" value="" style="endArrow=classic;html=1;labelBackgroundColor=#ffffff;strokeColor=#B20000;strokeWidth=2;fontFamily=Helvetica;fontSize=16;fontColor=#000000;fillColor=#e51400;" edge="1" parent="1">
          <mxGeometry width="50" height="50" relative="1" as="geometry">
            <mxPoint x="1040" y="1080" as="sourcePoint" />
            <mxPoint x="1015" y="1105" as="targetPoint" />
          </mxGeometry>
        </mxCell>
        <mxCell id="njbkgpjHh8RtpAubl-bF-103" value="" style="rounded=0;whiteSpace=wrap;html=1;strokeColor=none;strokeWidth=2;fillColor=#ffe6cc;fontFamily=Comic Sans MS;fontSize=16;" vertex="1" parent="1">
          <mxGeometry x="1135" y="1181" width="125" height="95" as="geometry" />
        </mxCell>
        <mxCell id="njbkgpjHh8RtpAubl-bF-104" value="" style="endArrow=none;html=1;fontSize=16;entryX=0.5;entryY=1;entryDx=0;entryDy=0;" edge="1" parent="1" target="njbkgpjHh8RtpAubl-bF-107">
          <mxGeometry width="50" height="50" relative="1" as="geometry">
            <mxPoint x="1135" y="1271" as="sourcePoint" />
            <mxPoint x="1185" y="1221" as="targetPoint" />
          </mxGeometry>
        </mxCell>
        <mxCell id="njbkgpjHh8RtpAubl-bF-105" value="" style="ellipse;whiteSpace=wrap;html=1;aspect=fixed;strokeColor=#005700;fillColor=#008a00;fontSize=16;fontColor=#ffffff;direction=south;" vertex="1" parent="1">
          <mxGeometry x="1130" y="1266" width="10" height="10" as="geometry" />
        </mxCell>
        <mxCell id="njbkgpjHh8RtpAubl-bF-106" value="" style="ellipse;whiteSpace=wrap;html=1;aspect=fixed;strokeColor=#000000;fillColor=#ffffff;fontSize=16;fontColor=#000000;direction=south;" vertex="1" parent="1">
          <mxGeometry x="1170" y="1236" width="10" height="10" as="geometry" />
        </mxCell>
        <mxCell id="njbkgpjHh8RtpAubl-bF-107" value="" style="ellipse;whiteSpace=wrap;html=1;aspect=fixed;strokeColor=#000000;fillColor=#ffffff;fontSize=16;fontColor=#000000;direction=south;" vertex="1" parent="1">
          <mxGeometry x="1250" y="1181" width="10" height="10" as="geometry" />
        </mxCell>
        <mxCell id="njbkgpjHh8RtpAubl-bF-108" value="7" style="text;html=1;align=center;verticalAlign=middle;resizable=0;points=[];autosize=1;fontSize=16;" vertex="1" parent="1">
          <mxGeometry x="1160" y="1211" width="20" height="20" as="geometry" />
        </mxCell>
        <mxCell id="njbkgpjHh8RtpAubl-bF-109" value="8" style="text;html=1;align=center;verticalAlign=middle;resizable=0;points=[];autosize=1;fontSize=16;" vertex="1" parent="1">
          <mxGeometry x="1200" y="1181" width="20" height="20" as="geometry" />
        </mxCell>
        <mxCell id="njbkgpjHh8RtpAubl-bF-110" value="" style="ellipse;whiteSpace=wrap;html=1;aspect=fixed;strokeColor=#000000;fillColor=#ffffff;fontSize=16;fontColor=#000000;direction=south;" vertex="1" parent="1">
          <mxGeometry x="1210" y="1206" width="10" height="10" as="geometry" />
        </mxCell>
        <mxCell id="njbkgpjHh8RtpAubl-bF-111" value="6" style="text;html=1;align=center;verticalAlign=middle;resizable=0;points=[];autosize=1;fontSize=16;" vertex="1" parent="1">
          <mxGeometry x="1130" y="1241" width="20" height="20" as="geometry" />
        </mxCell>
        <mxCell id="njbkgpjHh8RtpAubl-bF-113" value="9" style="text;html=1;align=center;verticalAlign=middle;resizable=0;points=[];autosize=1;fontSize=16;" vertex="1" parent="1">
          <mxGeometry x="1245" y="1161" width="20" height="20" as="geometry" />
        </mxCell>
        <mxCell id="njbkgpjHh8RtpAubl-bF-114" style="edgeStyle=none;rounded=0;orthogonalLoop=1;jettySize=auto;html=1;entryX=0;entryY=0.5;entryDx=0;entryDy=0;endArrow=none;endFill=0;" edge="1" parent="1" target="njbkgpjHh8RtpAubl-bF-105">
          <mxGeometry relative="1" as="geometry">
            <mxPoint x="1100" y="1098" as="sourcePoint" />
            <mxPoint x="1134.5344660940673" y="1180.0044660940673" as="targetPoint" />
          </mxGeometry>
        </mxCell>
        <mxCell id="njbkgpjHh8RtpAubl-bF-115" value="" style="endArrow=classic;html=1;labelBackgroundColor=#ffffff;strokeColor=#001DBC;strokeWidth=2;fontFamily=Helvetica;fontSize=16;fontColor=#000000;fillColor=#0050ef;" edge="1" parent="1">
          <mxGeometry width="50" height="50" relative="1" as="geometry">
            <mxPoint x="1137.5" y="1075" as="sourcePoint" />
            <mxPoint x="1112.5" y="1100" as="targetPoint" />
          </mxGeometry>
        </mxCell>
        <mxCell id="njbkgpjHh8RtpAubl-bF-116" value="收到新的数据的ACK" style="text;html=1;align=center;verticalAlign=middle;resizable=0;points=[];autosize=1;strokeColor=#6c8ebf;fillColor=#dae8fc;fontSize=16;" vertex="1" parent="1">
          <mxGeometry x="1115" y="1050" width="160" height="20" as="geometry" />
        </mxCell>
        <mxCell id="njbkgpjHh8RtpAubl-bF-117" value="" style="endArrow=classic;html=1;fontSize=16;fillColor=#008a00;strokeColor=#005700;strokeWidth=2;" edge="1" parent="1">
          <mxGeometry width="50" height="50" relative="1" as="geometry">
            <mxPoint x="1135" y="1310" as="sourcePoint" />
            <mxPoint x="1135" y="1285" as="targetPoint" />
          </mxGeometry>
        </mxCell>
        <mxCell id="njbkgpjHh8RtpAubl-bF-118" value="cwnd = ssthresh" style="text;html=1;align=center;verticalAlign=middle;resizable=0;points=[];autosize=1;fontSize=16;fillColor=#d5e8d4;strokeColor=#82b366;" vertex="1" parent="1">
          <mxGeometry x="1080" y="1315" width="130" height="20" as="geometry" />
        </mxCell>
        <mxCell id="njbkgpjHh8RtpAubl-bF-119" value="拥塞避免" style="text;html=1;align=center;verticalAlign=middle;resizable=0;points=[];autosize=1;fontSize=16;fillColor=#ffff88;strokeColor=#36393d;" vertex="1" parent="1">
          <mxGeometry x="1180" y="1251" width="80" height="20" as="geometry" />
        </mxCell>
        <mxCell id="njbkgpjHh8RtpAubl-bF-122" value="12" style="html=1;whiteSpace=wrap;comic=1;strokeWidth=2;fontFamily=Comic Sans MS;fontStyle=1;fontSize=16;fontColor=#000000;strokeColor=none;" vertex="1" parent="1">
          <mxGeometry x="1121" y="1450" width="40" height="20" as="geometry" />
        </mxCell>
        <mxCell id="njbkgpjHh8RtpAubl-bF-123" value="13" style="html=1;whiteSpace=wrap;comic=1;strokeWidth=2;fontFamily=Comic Sans MS;fontStyle=1;fontSize=16;fontColor=#000000;strokeColor=none;" vertex="1" parent="1">
          <mxGeometry x="1161" y="1450" width="40" height="20" as="geometry" />
        </mxCell>
        <mxCell id="njbkgpjHh8RtpAubl-bF-124" value="14" style="html=1;whiteSpace=wrap;comic=1;strokeWidth=2;fontFamily=Comic Sans MS;fontStyle=1;fontSize=16;fontColor=#000000;strokeColor=none;" vertex="1" parent="1">
          <mxGeometry x="1201" y="1450" width="40" height="20" as="geometry" />
        </mxCell>
        <mxCell id="njbkgpjHh8RtpAubl-bF-125" value="15" style="html=1;whiteSpace=wrap;comic=1;strokeWidth=2;fontFamily=Comic Sans MS;fontStyle=1;fontSize=16;fontColor=#000000;strokeColor=none;" vertex="1" parent="1">
          <mxGeometry x="1245" y="1450" width="40" height="20" as="geometry" />
        </mxCell>
      </root>
    </mxGraphModel>
  </diagram>
</mxfile>
